HIERARCHY
ROOT Hips
{
	OFFSET 0.00000 0.00000 0.00000
	CHANNELS 6 Xposition Yposition Zposition Zrotation Yrotation Xrotation 
	JOINT LHipJoint
	{
		OFFSET 0 0 0
		CHANNELS 3 Zrotation Yrotation Xrotation
		JOINT LeftHip
		{
			OFFSET 1.57358 -1.76629 0.73362
			CHANNELS 3 Zrotation Yrotation Xrotation
			JOINT LeftKnee
			{
				OFFSET 2.40600 -6.61045 0.00000
				CHANNELS 3 Zrotation Yrotation Xrotation
				JOINT LeftAnkle
				{
					OFFSET 2.66168 -7.31291 0.00000
					CHANNELS 3 Zrotation Yrotation Xrotation
					JOINT LeftToe
					{
						OFFSET 0.20870 -0.57341 2.12506
						CHANNELS 3 Zrotation Yrotation Xrotation
						End Site
						{
							OFFSET 0.00000 -0.00000 1.10557
						}
					}
				}
			}
		}
	}
	JOINT RHipJoint
	{
		OFFSET 0 0 0
		CHANNELS 3 Zrotation Yrotation Xrotation
		JOINT RightHip
		{
			OFFSET -1.49299 -1.76629 0.73362
			CHANNELS 3 Zrotation Yrotation Xrotation
			JOINT RightKnee
			{
				OFFSET -2.43663 -6.69460 0.00000
				CHANNELS 3 Zrotation Yrotation Xrotation
				JOINT RightAnkle
				{
					OFFSET -2.62959 -7.22474 0.00000
					CHANNELS 3 Zrotation Yrotation Xrotation
					JOINT RightToe
					{
						OFFSET -0.25784 -0.70841 2.21862
						CHANNELS 3 Zrotation Yrotation Xrotation
						End Site
						{
							OFFSET -0.00000 -0.00000 1.16452
						}
					}
				}
			}
		}
	}
	JOINT lowerback
	{
		OFFSET 0 0 0
		CHANNELS 3 Zrotation Yrotation Xrotation
		JOINT Chest
		{
			OFFSET -0.00034 2.12399 -0.25450
			CHANNELS 3 Zrotation Yrotation Xrotation
			JOINT Chest2
			{
				OFFSET 0.05594 2.14379 -0.03318
				CHANNELS 3 Zrotation Yrotation Xrotation
				JOINT lowerneck
				{
					OFFSET 0 0 0
					CHANNELS 3 Zrotation Yrotation Xrotation
					JOINT Neck
					{
						OFFSET -0.09835 1.62725 0.24211
						CHANNELS 3 Zrotation Yrotation Xrotation
						JOINT Head
						{
							OFFSET 0.10849 1.66041 -0.22648
							CHANNELS 3 Zrotation Yrotation Xrotation
							End Site
							{
								OFFSET 0.04385 1.68267 -0.10541
							}
						}
					}
				}
				JOINT LeftCollar
				{
					OFFSET 0 0 0
					CHANNELS 3 Zrotation Yrotation Xrotation
					JOINT LeftShoulder
					{
						OFFSET 3.29108 0.79398 -0.68179
CHANNELS 3 Zrotation Xrotation Yrotation
						JOINT LeftElbow
						{
OFFSET 0 -5.153100 -0.000000
CHANNELS 3 Zrotation Xrotation Yrotation
							JOINT LeftWrist
							{
OFFSET 0 -3.751380 -0.000000
CHANNELS 3 Zrotation Xrotation Yrotation
								JOINT lhand
								{
									OFFSET 0 0 0
CHANNELS 3 Zrotation Xrotation Yrotation
									JOINT LFingers
									{
OFFSET 0 -0.529170 0.000000
CHANNELS 3 Zrotation Xrotation Yrotation
										End Site
										{
OFFSET 0 -0.426630 0.000000
										}
									}
								}
								JOINT LThumb
								{
OFFSET 0 0.000000 0.000000
CHANNELS 3 Zrotation Xrotation Yrotation
									End Site
									{
OFFSET 0 -0.433150 0.433150
									}
								}
							}
						}
					}
				}
				JOINT RightCollar
				{
					OFFSET 0 0 0
					CHANNELS 3 Zrotation Yrotation Xrotation
					JOINT RightShoulder
					{
						OFFSET -3.07414 1.06285 -0.44338
CHANNELS 3 Zrotation Xrotation Yrotation
						JOINT RightElbow
						{
OFFSET 0 -5.296130 0.000000
CHANNELS 3 Zrotation Xrotation Yrotation
							JOINT RightWrist
							{
OFFSET 0 -3.761440 -0.000000
CHANNELS 3 Zrotation Xrotation Yrotation
								JOINT rhand
								{
									OFFSET 0 0 0
CHANNELS 3 Zrotation Xrotation Yrotation
									JOINT RFingers
									{
OFFSET 0 -0.747320 0.000000
CHANNELS 3 Zrotation Xrotation Yrotation
										End Site
										{
OFFSET 0 -0.602510 0.000000
										}
									}
								}
								JOINT RThumb
								{
OFFSET 0 0.000000 0.000000
CHANNELS 3 Zrotation Xrotation Yrotation
									End Site
									{
OFFSET 0 -0.611710 0.611710
									}
								}
							}
						}
					}
				}
			}
		}
	}
}
MOTION
Frames: 7
Frame Time: 0.008333333333333333
-2.112175 17.719768 5.507207 0.758076 30.806375 5.187647 0.000000 0.000000 0.000000 -27.027687 -1.360475 8.368326 7.678478 15.865103 51.375152 1.493643 4.242693 22.125470 0.206552 2.917737 8.050423 0.000000 0.000000 0.000000 12.438139 7.878377 -27.351134 -1.559486 -7.872175 22.331084 -0.005642 1.869941 3.260002 -1.302942 7.091184 -20.047513 -7.372932 -2.139467 10.664299 2.501886 -3.604457 0.056109 7.353900 -1.552417 -5.311201 -6.312779 -2.703641 -20.741102 5.114771 -2.789923 14.146938 2.383589 -1.153567 7.931165 0.000000 0.000000 0.000000 5.461037 8.044334 -48.326471 113.285818 -57.847302 80.020247 11.859891 -25.401620 -9.216700 0.000000 0.000000 0.000000 -7.125000 0.000000 0.000000 -13.038514 39.071590 -1.943730 0.000000 0.000000 0.000000 -13.454861 19.664426 45.021628 -124.592558 -54.956347 -89.450655 -2.261175 -26.336732 -24.316830 0.000000 0.000000 0.000000 7.125000 0.000000 0.000000 16.563068 6.461369 15.262606
-2.062326 17.699304 5.609721 0.628128 30.738125 5.000741 0.000000 0.000000 0.000000 -26.760961 -1.184526 7.968279 7.961235 16.086608 52.416156 1.485028 3.817080 22.116911 0.187956 2.789211 7.692670 0.000000 0.000000 0.000000 12.744817 7.826130 -27.383503 -1.640059 -8.069424 22.926652 -0.001125 2.322124 3.438907 -1.007026 6.334052 -17.775839 -7.174595 -2.078800 10.736898 2.521457 -3.501971 0.087028 7.251999 -1.505551 -5.348002 -6.237336 -2.695723 -20.584306 4.983513 -2.782870 14.047714 2.327467 -1.161401 7.867794 0.000000 0.000000 0.000000 5.423511 8.140101 -48.338013 112.986055 -57.905905 79.766541 11.955072 -25.386760 -9.301901 0.000000 0.000000 0.000000 -7.125000 0.000000 0.000000 -12.976342 39.163370 -1.903890 0.000000 0.000000 0.000000 -13.413682 19.513178 45.062583 -124.677173 -54.928941 -89.519964 -2.399124 -26.589295 -24.202690 0.000000 0.000000 0.000000 7.125000 0.000000 0.000000 16.483304 6.561206 15.148717
-2.012458 17.674861 5.714205 0.590867 30.712308 4.850889 0.000000 0.000000 0.000000 -26.560484 -1.041002 7.609896 8.256876 16.296411 53.469334 1.471232 3.560174 22.049963 0.178146 2.717794 7.494127 0.000000 0.000000 0.000000 12.967949 7.714371 -27.380195 -1.731269 -8.275598 23.558330 0.010109 2.817862 3.451587 -0.784273 5.516187 -15.417960 -7.043039 -2.027038 10.817771 2.503895 -3.422691 0.090643 7.152403 -1.466841 -5.411890 -6.159076 -2.698857 -20.386811 4.865946 -2.797722 13.988164 2.273571 -1.178435 7.812421 0.000000 0.000000 0.000000 5.423433 8.270145 -48.358558 112.664405 -57.966143 79.493844 11.934795 -25.397135 -9.360803 0.000000 0.000000 0.000000 -7.125000 0.000000 0.000000 -13.006423 39.220224 -1.889619 0.000000 0.000000 0.000000 -13.377074 19.425323 45.133817 -124.781960 -54.894641 -89.605683 -2.460028 -26.840695 -24.089240 0.000000 0.000000 0.000000 7.125000 0.000000 0.000000 16.449400 6.665752 15.079841
-1.962581 17.648766 5.819507 0.592093 30.704112 4.716425 0.000000 0.000000 0.000000 -26.387518 -0.910943 7.268815 8.557866 16.501355 54.527567 1.455285 3.373324 21.958768 0.171985 2.670092 7.361698 0.000000 0.000000 0.000000 13.156388 7.577899 -27.362073 -1.826897 -8.485477 24.205002 0.024132 3.331686 3.395242 -0.591903 4.673102 -13.024284 -6.939215 -1.978973 10.902080 2.470914 -3.353047 0.082921 7.053764 -1.431517 -5.487026 -6.079647 -2.706579 -20.172415 4.754064 -2.821671 13.945090 2.220599 -1.199289 7.760369 0.000000 0.000000 0.000000 5.438907 8.414423 -48.382842 112.333667 -58.027061 79.213262 11.866573 -25.417989 -9.408784 0.000000 0.000000 0.000000 -7.125000 0.000000 0.000000 -13.074812 39.262573 -1.885967 0.000000 0.000000 0.000000 -13.342364 19.363792 45.217623 -124.895124 -54.857477 -89.698216 -2.488940 -27.091614 -23.976076 0.000000 0.000000 0.000000 7.125000 0.000000 0.000000 16.434540 6.772253 15.029657
-1.912704 17.622670 5.924809 0.593320 30.695915 4.581961 0.000000 0.000000 0.000000 -26.214552 -0.780883 6.927733 8.858856 16.706300 55.585801 1.439337 3.186473 21.867573 0.165824 2.622389 7.229269 0.000000 0.000000 0.000000 13.344828 7.441428 -27.343952 -1.922525 -8.695356 24.851674 0.038156 3.845511 3.338897 -0.399532 3.830017 -10.630608 -6.835390 -1.930909 10.986388 2.437932 -3.283403 0.075198 6.955126 -1.396193 -5.562162 -6.000217 -2.714302 -19.958020 4.642183 -2.845619 13.902016 2.167628 -1.220143 7.708318 0.000000 0.000000 0.000000 5.454380 8.558701 -48.407125 112.002929 -58.087978 78.932680 11.798352 -25.438843 -9.456765 0.000000 0.000000 0.000000 -7.125000 0.000000 0.000000 -13.143201 39.304922 -1.882315 0.000000 0.000000 0.000000 -13.307653 19.302262 45.301430 -125.008288 -54.820313 -89.790749 -2.517851 -27.342532 -23.862912 0.000000 0.000000 0.000000 7.125000 0.000000 0.000000 16.419680 6.878754 14.979474
-1.863020 17.596314 6.029934 0.601091 30.697555 4.453880 0.000000 0.000000 0.000000 -26.045545 -0.662640 6.582184 9.163089 16.909695 56.649881 1.422919 3.022033 21.768178 0.159101 2.569271 7.081862 0.000000 0.000000 0.000000 13.523531 7.307303 -27.320765 -2.020109 -8.906451 25.504085 0.051064 4.308575 3.220836 -0.226948 3.063239 -8.455099 -6.739222 -1.886517 11.065615 2.405247 -3.219175 0.070443 6.861445 -1.363808 -5.629869 -5.938704 -2.723951 -19.776268 4.549139 -2.869511 13.888991 2.123948 -1.239732 7.672360 0.000000 0.000000 0.000000 5.464518 8.687793 -48.425181 111.659326 -58.150575 78.641062 11.742210 -25.452886 -9.509938 0.000000 0.000000 0.000000 -7.125000 0.000000 0.000000 -13.202505 39.353359 -1.875270 0.000000 0.000000 0.000000 -13.280008 19.222030 45.387501 -125.111660 -54.786351 -89.875272 -2.551026 -27.594706 -23.751590 0.000000 0.000000 0.000000 7.125000 0.000000 0.000000 16.402219 6.983201 14.927414
-1.814760 17.568044 6.133758 0.656962 30.771492 4.372722 0.000000 0.000000 0.000000 -25.905645 -0.631248 6.203800 9.491150 17.101703 57.756932 1.403041 3.022312 21.608511 0.148256 2.476348 6.824364 0.000000 0.000000 0.000000 13.630673 7.190431 -27.260349 -2.132074 -9.126478 26.198683 0.055776 4.398543 2.649161 -0.199793 2.857319 -7.883117 -6.699326 -1.869120 11.107490 2.374747 -3.194752 0.087506 6.804208 -1.353018 -5.642973 -6.008877 -2.747761 -19.834453 4.594555 -2.892986 14.096835 2.148566 -1.250020 7.754689 0.000000 0.000000 0.000000 5.435439 8.705274 -48.397469 111.221167 -58.225516 78.268337 11.774857 -25.416865 -9.601272 0.000000 0.000000 0.000000 -7.125000 0.000000 0.000000 -13.195033 39.446533 -1.843292 0.000000 0.000000 0.000000 -13.304291 19.004344 45.490210 -125.143052 -54.775924 -89.900921 -2.615540 -27.856107 -23.653816 0.000000 0.000000 0.000000 7.125000 0.000000 0.000000 16.365641 7.072556 14.861561
